<mxfile host="Electron" agent="Mozilla/5.0 (X11; Linux x86_64) AppleWebKit/537.36 (KHTML, like Gecko) draw.io/28.0.6 Chrome/138.0.7204.100 Electron/37.2.3 Safari/537.36" version="28.0.6">
  <diagram name="Page-1" id="I1Vm7R7SPHCTJVKVBuw2">
    <mxGraphModel dx="1154" dy="571" grid="1" gridSize="10" guides="1" tooltips="1" connect="1" arrows="1" fold="1" page="1" pageScale="1" pageWidth="850" pageHeight="1100" math="0" shadow="0">
      <root>
        <mxCell id="0" />
        <mxCell id="1" parent="0" />
        <mxCell id="mDnB6qsIUPAGGBXlbiZl-1" value="Giai đoạn III: Đầu ra và Ứng dụng" style="whiteSpace=wrap;strokeWidth=2;fillColor=#dae8fc;strokeColor=#6c8ebf;" vertex="1" parent="1">
          <mxGeometry x="-10" y="451" width="345" height="202" as="geometry" />
        </mxCell>
        <mxCell id="mDnB6qsIUPAGGBXlbiZl-2" value="Giai đoạn II: Xử lý và Phân tích" style="whiteSpace=wrap;strokeWidth=2;fillColor=#fff2cc;strokeColor=#d6b656;" vertex="1" parent="1">
          <mxGeometry x="-10" y="10" width="350" height="429" as="geometry" />
        </mxCell>
        <mxCell id="mDnB6qsIUPAGGBXlbiZl-3" value="Giai đoạn I: Đầu vào và Tiền xử lý" style="whiteSpace=wrap;strokeWidth=2;fillColor=#ffe6cc;strokeColor=#d79b00;" vertex="1" parent="1">
          <mxGeometry x="390" y="10" width="444" height="562" as="geometry" />
        </mxCell>
        <mxCell id="mDnB6qsIUPAGGBXlbiZl-4" value="Thu nhận hình ảnh/video" style="whiteSpace=wrap;strokeWidth=2;" vertex="1" parent="1">
          <mxGeometry x="507" y="45" width="228" height="51" as="geometry" />
        </mxCell>
        <mxCell id="mDnB6qsIUPAGGBXlbiZl-29" style="edgeStyle=orthogonalEdgeStyle;rounded=0;orthogonalLoop=1;jettySize=auto;html=1;entryX=1;entryY=0.5;entryDx=0;entryDy=0;" edge="1" parent="1" source="mDnB6qsIUPAGGBXlbiZl-5" target="mDnB6qsIUPAGGBXlbiZl-8">
          <mxGeometry relative="1" as="geometry" />
        </mxCell>
        <mxCell id="mDnB6qsIUPAGGBXlbiZl-37" style="edgeStyle=orthogonalEdgeStyle;rounded=0;orthogonalLoop=1;jettySize=auto;html=1;entryX=0.5;entryY=0;entryDx=0;entryDy=0;" edge="1" parent="1" source="mDnB6qsIUPAGGBXlbiZl-5" target="mDnB6qsIUPAGGBXlbiZl-6">
          <mxGeometry relative="1" as="geometry" />
        </mxCell>
        <mxCell id="mDnB6qsIUPAGGBXlbiZl-5" value="Tiền xử lý dữ liệu" style="whiteSpace=wrap;strokeWidth=2;" vertex="1" parent="1">
          <mxGeometry x="531" y="146" width="181" height="51" as="geometry" />
        </mxCell>
        <mxCell id="mDnB6qsIUPAGGBXlbiZl-31" style="edgeStyle=orthogonalEdgeStyle;rounded=0;orthogonalLoop=1;jettySize=auto;html=1;entryX=0;entryY=0.5;entryDx=0;entryDy=0;" edge="1" parent="1" source="mDnB6qsIUPAGGBXlbiZl-6" target="mDnB6qsIUPAGGBXlbiZl-7">
          <mxGeometry relative="1" as="geometry" />
        </mxCell>
        <mxCell id="mDnB6qsIUPAGGBXlbiZl-32" style="edgeStyle=orthogonalEdgeStyle;rounded=0;orthogonalLoop=1;jettySize=auto;html=1;entryX=1;entryY=0.75;entryDx=0;entryDy=0;" edge="1" parent="1" source="mDnB6qsIUPAGGBXlbiZl-6" target="mDnB6qsIUPAGGBXlbiZl-8">
          <mxGeometry relative="1" as="geometry" />
        </mxCell>
        <mxCell id="mDnB6qsIUPAGGBXlbiZl-6" value="Dữ liệu đã sạch?" style="rhombus;strokeWidth=2;whiteSpace=wrap;" vertex="1" parent="1">
          <mxGeometry x="420" y="290" width="161" height="161" as="geometry" />
        </mxCell>
        <mxCell id="mDnB6qsIUPAGGBXlbiZl-30" style="edgeStyle=orthogonalEdgeStyle;rounded=0;orthogonalLoop=1;jettySize=auto;html=1;entryX=1;entryY=0.5;entryDx=0;entryDy=0;" edge="1" parent="1" source="mDnB6qsIUPAGGBXlbiZl-7" target="mDnB6qsIUPAGGBXlbiZl-5">
          <mxGeometry relative="1" as="geometry" />
        </mxCell>
        <mxCell id="mDnB6qsIUPAGGBXlbiZl-7" value="Loại bỏ nhiễu / Chỉnh sửa" style="whiteSpace=wrap;strokeWidth=2;" vertex="1" parent="1">
          <mxGeometry x="566" y="506" width="234" height="51" as="geometry" />
        </mxCell>
        <mxCell id="mDnB6qsIUPAGGBXlbiZl-8" value="Trích xuất đặc trưng" style="whiteSpace=wrap;strokeWidth=2;" vertex="1" parent="1">
          <mxGeometry x="104.5" y="90" width="198" height="51" as="geometry" />
        </mxCell>
        <mxCell id="mDnB6qsIUPAGGBXlbiZl-9" value="Học và huấn luyện mô hình" style="whiteSpace=wrap;strokeWidth=2;" vertex="1" parent="1">
          <mxGeometry x="81.5" y="216" width="243" height="51" as="geometry" />
        </mxCell>
        <mxCell id="mDnB6qsIUPAGGBXlbiZl-35" style="edgeStyle=orthogonalEdgeStyle;rounded=0;orthogonalLoop=1;jettySize=auto;html=1;entryX=1;entryY=0.75;entryDx=0;entryDy=0;" edge="1" parent="1" target="mDnB6qsIUPAGGBXlbiZl-12">
          <mxGeometry relative="1" as="geometry">
            <mxPoint x="311.5" y="342.25" as="sourcePoint" />
            <mxPoint x="347" y="544.75" as="targetPoint" />
            <Array as="points">
              <mxPoint x="312" y="310" />
              <mxPoint x="320" y="310" />
              <mxPoint x="320" y="528" />
            </Array>
          </mxGeometry>
        </mxCell>
        <mxCell id="mDnB6qsIUPAGGBXlbiZl-36" style="edgeStyle=orthogonalEdgeStyle;rounded=0;orthogonalLoop=1;jettySize=auto;html=1;" edge="1" parent="1" source="mDnB6qsIUPAGGBXlbiZl-10" target="mDnB6qsIUPAGGBXlbiZl-11">
          <mxGeometry relative="1" as="geometry" />
        </mxCell>
        <mxCell id="mDnB6qsIUPAGGBXlbiZl-10" value="Nhận dạng và Phân loại" style="whiteSpace=wrap;strokeWidth=2;" vertex="1" parent="1">
          <mxGeometry x="94.5" y="290" width="218" height="51" as="geometry" />
        </mxCell>
        <mxCell id="mDnB6qsIUPAGGBXlbiZl-11" value="Đưa ra kết quả" style="whiteSpace=wrap;strokeWidth=2;" vertex="1" parent="1">
          <mxGeometry x="72.5" y="380" width="161" height="51" as="geometry" />
        </mxCell>
        <mxCell id="mDnB6qsIUPAGGBXlbiZl-12" value="Hiển thị kết quả" style="whiteSpace=wrap;strokeWidth=2;" vertex="1" parent="1">
          <mxGeometry x="67" y="490" width="171" height="51" as="geometry" />
        </mxCell>
        <mxCell id="mDnB6qsIUPAGGBXlbiZl-13" value="Tác vụ / Hành động" style="whiteSpace=wrap;strokeWidth=2;" vertex="1" parent="1">
          <mxGeometry x="58" y="591" width="190" height="51" as="geometry" />
        </mxCell>
        <mxCell id="mDnB6qsIUPAGGBXlbiZl-14" value="" style="curved=1;startArrow=none;endArrow=block;exitX=0.5;exitY=1;entryX=0.5;entryY=0;rounded=0;" edge="1" parent="1" source="mDnB6qsIUPAGGBXlbiZl-4" target="mDnB6qsIUPAGGBXlbiZl-5">
          <mxGeometry relative="1" as="geometry">
            <Array as="points" />
          </mxGeometry>
        </mxCell>
        <mxCell id="mDnB6qsIUPAGGBXlbiZl-19" value="" style="curved=1;startArrow=none;endArrow=block;exitX=0.5;exitY=1.01;entryX=0.5;entryY=0.01;rounded=0;" edge="1" parent="1" source="mDnB6qsIUPAGGBXlbiZl-8" target="mDnB6qsIUPAGGBXlbiZl-9">
          <mxGeometry relative="1" as="geometry">
            <Array as="points" />
          </mxGeometry>
        </mxCell>
        <mxCell id="mDnB6qsIUPAGGBXlbiZl-20" value="" style="curved=1;startArrow=none;endArrow=block;exitX=0.5;exitY=1.01;entryX=0.5;entryY=0.01;rounded=0;" edge="1" parent="1" source="mDnB6qsIUPAGGBXlbiZl-9" target="mDnB6qsIUPAGGBXlbiZl-10">
          <mxGeometry relative="1" as="geometry">
            <Array as="points" />
          </mxGeometry>
        </mxCell>
        <mxCell id="mDnB6qsIUPAGGBXlbiZl-22" value="" style="startArrow=none;endArrow=block;exitX=0.5;exitY=1.01;rounded=0;" edge="1" parent="1" source="mDnB6qsIUPAGGBXlbiZl-11" target="mDnB6qsIUPAGGBXlbiZl-12">
          <mxGeometry relative="1" as="geometry" />
        </mxCell>
        <mxCell id="mDnB6qsIUPAGGBXlbiZl-23" value="" style="curved=1;startArrow=none;endArrow=block;exitX=0.5;exitY=1.01;entryX=0.5;entryY=0.01;rounded=0;" edge="1" parent="1" source="mDnB6qsIUPAGGBXlbiZl-12" target="mDnB6qsIUPAGGBXlbiZl-13">
          <mxGeometry relative="1" as="geometry">
            <Array as="points" />
          </mxGeometry>
        </mxCell>
      </root>
    </mxGraphModel>
  </diagram>
</mxfile>
